PathFileType	4	(X/Y/Z)	A:\Common\BMMB\PROJECTS\STRATO\DataSTRATO\DataSTRATO\0021~016 ID\0021~aa~ID 016\W8_STRATO_ID_16.trc
DataRate	CameraRate	NumFrames	NumMarkers	Units	OrigDataRate	OrigDataStartFrame	OrigNumFrames
250.00	250.00	8	18	mm	250.00	327	2481
Frame#	Time	r.should			l.should			c7			r.asis			l.asis			sacrum			r.bar1			l.bar1			r.knee1			l.knee1			r.bar2			r.mall			l.bar2			l.mall			r.met			r.heel			l.heel			l.met			
		X1	Y1	Z1	X2	Y2	Z2	X3	Y3	Z3	X4	Y4	Z4	X5	Y5	Z5	X6	Y6	Z6	X7	Y7	Z7	X8	Y8	Z8	X9	Y9	Z9	X10	Y10	Z10	X11	Y11	Z11	X12	Y12	Z12	X13	Y13	Z13	X14	Y14	Z14	X15	Y15	Z15	X16	Y16	Z16	X17	Y17	Z17	X18	Y18	Z18	

1490	5.960000	313.684195	1330.769181	496.533751	16.768439	1329.562306	478.882551	168.407738	1387.577534	566.479981	290.568590	871.624827	378.229529	59.649885	885.002792	357.127070	156.690806	940.246701	597.815752	366.221249	778.967381	468.826294	-23.654535	792.481661	414.787382	316.676915	429.376662	474.381775	51.994026	460.594058	378.310293	305.319756	379.118502	490.192026	273.639381	192.316800	775.903821	52.764580	416.544020	380.089283	106.481537	51.615022	393.718064	241.101456	55.998690	764.843762	218.161359	230.512470	820.457876	148.436755	31.680595	460.745215	134.856659	40.716261	273.761958	
1491	5.964000	313.491225	1331.019163	492.494464	16.679864	1329.784274	474.229723	168.058664	1387.847424	562.191606	290.609717	871.995807	373.912871	59.310533	885.222316	353.172272	156.598702	940.506160	593.682170	366.235137	779.389143	464.071929	-23.773709	792.691827	411.077559	317.525774	429.768324	465.865612	51.786330	460.283041	376.764596	305.962205	379.440695	481.300056	273.538113	194.637626	768.672824	52.560531	416.218400	378.760457	106.520191	51.592719	393.655956	242.372001	58.800165	756.644428	218.278542	233.383253	812.324166	148.481429	31.706359	460.764110	134.313649	41.292593	275.441259	
1492	5.968000	313.340038	1331.242323	488.451451	16.589450	1329.996705	469.562262	167.747498	1388.130188	557.900071	290.638149	872.455835	369.505823	59.000865	885.342658	349.272966	156.531453	940.773308	589.580655	366.366029	779.927075	459.537983	-23.890857	792.871475	407.438964	318.366379	430.305183	457.457304	51.587258	459.987760	375.146806	306.592584	379.865736	472.459137	273.740053	197.222590	762.162626	52.409783	415.878177	377.356231	106.576219	51.482998	393.723488	243.648145	61.472822	748.326540	218.537241	236.013338	805.178702	148.347408	31.954944	460.818648	133.746095	41.901626	277.208090	
1493	5.972000	313.195735	1331.448078	484.429061	16.485186	1330.193996	464.953542	167.456374	1388.431787	553.629935	290.681064	872.862995	365.170479	58.729891	885.381281	345.420063	156.520993	941.043496	585.496247	366.593957	780.385077	455.106050	-23.998920	792.991281	403.823286	319.176853	430.978477	449.165285	51.437709	459.734261	373.412907	307.231963	380.416512	463.669866	274.475276	200.188339	756.291270	52.290268	415.546715	375.838637	106.638730	51.433224	393.707544	244.903373	63.912638	740.108430	219.129711	238.500535	799.227476	148.082033	32.649297	460.782051	133.154912	42.542212	279.059321	
1494	5.976000	313.058257	1331.642866	480.414420	16.545948	1330.357313	460.121870	167.176902	1388.736844	549.333572	290.723294	873.209894	360.809147	58.482863	885.473967	341.432422	156.541884	941.327333	581.371009	366.784304	780.798614	450.522661	-24.074482	793.075681	400.233328	319.895595	431.725204	440.976143	51.300757	459.515750	371.568531	307.881266	381.110251	454.955161	274.584889	203.063801	748.926342	52.214004	415.235102	374.145746	106.681116	51.465333	393.577039	246.111172	66.015594	732.208669	218.997672	240.605220	792.078376	148.289472	32.691889	460.559189	132.541013	43.213196	280.991793	
1495	5.980000	312.934458	1331.829429	476.397634	16.668065	1330.544949	455.208361	166.917592	1389.012575	545.022190	290.801346	873.528957	356.450081	58.276918	885.481238	337.547660	156.605378	941.641808	577.262998	367.002666	781.288147	445.870459	-24.106789	793.193102	396.541923	320.525885	432.571262	432.789117	51.169809	459.308088	369.729429	308.550268	381.937623	446.343362	274.039865	205.698922	740.461230	52.189354	414.925843	372.384757	106.731534	51.470466	393.413633	247.245029	67.677669	724.845648	218.056217	242.191404	783.522010	148.472354	31.953320	460.787177	131.905310	43.913439	283.002377	
1496	5.984000	312.842250	1331.985831	472.384334	16.395841	1330.701828	451.001108	166.709900	1389.311790	540.695310	290.901721	873.829246	352.140754	58.069814	885.486424	333.624452	156.713307	941.978216	573.171258	367.211968	781.792402	441.248208	-24.089180	793.293059	392.904669	321.075112	433.506012	424.582779	51.103186	459.165752	367.751986	309.272975	382.878244	437.748998	272.842467	207.887173	730.985403	52.198876	414.671421	370.566905	106.778674	51.429808	393.370450	248.355657	68.995766	717.542112	216.303781	243.238717	773.401499	148.519546	31.745270	460.889727	131.248716	44.641785	285.087913	
1497	5.988000	312.780112	1332.151294	468.426704	16.449668	1330.838203	446.223468	166.517571	1389.631391	536.401451	291.019440	874.048889	347.875416	57.893597	885.456741	329.718232	156.846672	942.312658	569.050193	367.483079	782.353580	436.639875	-24.095360	793.346643	389.453560	321.843565	434.490234	416.612238	51.056419	459.079802	365.734339	310.029864	383.901954	429.178983	272.263706	209.960550	722.254574	52.270398	414.459974	368.622124	106.783621	51.392902	393.345088	249.672174	70.571706	708.225131	215.324640	244.342178	764.550030	148.600250	31.825915	460.778236	130.572146	45.397088	287.245274	
